<?xml version="1.0" standalone="no"?>
<!DOCTYPE svg PUBLIC "-//W3C//DTD SVG 20010904//EN"
 "http://www.w3.org/TR/2001/REC-SVG-20010904/DTD/svg10.dtd">
<svg version="1.0" xmlns="http://www.w3.org/2000/svg"
 width="400.000000pt" height="400.000000pt" viewBox="0 0 400.000000 400.000000"
 preserveAspectRatio="xMidYMid meet">
<metadata>
Created by potrace 1.14, written by Peter Selinger 2001-2017
</metadata>
<g transform="translate(0.000000,400.000000) scale(0.100000,-0.100000)"
fill="#000000" stroke="none">
<path d="M0 2846 l0 -1154 163 63 c185 72 169 73 264 -15 50 -46 71 -77 125
-182 46 -89 62 -131 54 -137 -20 -16 -121 -65 -141 -68 -11 -2 -21 -8 -23 -13
-2 -5 -10 -6 -18 -3 -12 5 -19 -7 -15 -29 0 -5 -4 -8 -11 -8 -6 0 -22 -9 -34
-21 -20 -19 -22 -19 -21 -2 1 10 -5 18 -13 19 -63 2 -187 30 -204 46 -11 10
-14 18 -8 18 7 0 12 7 12 15 0 19 26 19 34 0 8 -23 31 -18 44 10 6 14 17 25
24 25 7 0 0 9 -16 19 -23 16 -40 18 -80 14 -28 -3 -54 -11 -58 -16 -4 -8 -15
-7 -33 1 -14 7 -30 12 -36 12 -6 0 -9 -253 -9 -690 l1 -690 47 -2 c26 -1 58
-1 71 0 13 1 37 -6 53 -14 23 -12 27 -18 18 -29 -9 -11 16 -13 145 -14 134 0
156 2 151 14 -7 20 11 19 22 -1 5 -10 15 -14 21 -10 9 6 9 11 1 21 -8 10 -7
15 2 19 7 3 2 3 -11 0 -16 -4 -21 -3 -16 6 4 6 -1 20 -11 31 -19 21 -6 27 15
7 11 -11 11 -9 2 10 -8 15 -8 22 -1 22 6 0 8 5 4 11 -3 6 -1 15 6 19 10 6 9
15 -4 41 -10 21 -13 35 -7 37 6 2 21 12 33 23 l23 20 -31 -15 -32 -15 -10 40
c-9 36 -8 41 13 55 22 14 31 54 13 54 -4 0 -5 7 -2 15 4 10 0 15 -12 15 -18 1
-18 2 1 16 19 15 19 15 -10 8 -28 -7 -29 -6 -15 12 8 10 11 16 6 12 -4 -4 -14
-1 -21 5 -11 10 -6 16 22 33 l35 22 -46 -3 c-29 -2 -44 0 -40 7 4 5 16 8 28 6
16 -3 22 1 22 13 0 10 -2 16 -5 14 -9 -9 -31 34 -25 49 4 12 0 16 -16 16 -12
0 -18 4 -15 10 4 6 11 8 16 5 5 -4 9 -1 9 4 0 6 -5 11 -11 11 -5 0 -7 5 -4 10
3 6 0 10 -7 11 -7 0 -4 4 7 9 16 7 17 9 3 9 -27 1 -31 19 -8 38 11 10 20 24
20 31 0 11 -4 12 -13 4 -8 -7 -17 -7 -30 2 -22 17 -22 26 1 27 11 1 8 4 -8 8
-15 5 -23 14 -21 22 2 8 4 22 5 32 0 9 4 17 9 17 5 0 6 10 3 23 -3 12 -3 16 0
10 3 -7 12 -13 19 -13 8 0 39 -45 70 -100 51 -90 97 -155 259 -364 30 -37 69
-83 87 -100 119 -113 201 -186 210 -186 6 0 8 4 5 9 -4 5 3 7 14 4 11 -3 23
-9 26 -14 9 -15 24 -10 18 6 -4 8 -1 15 5 15 6 0 11 5 11 11 0 6 9 23 19 37
10 15 19 30 20 35 3 17 3 23 6 32 1 6 3 18 3 28 1 9 9 17 17 17 19 0 19 24 0
40 -9 8 -13 21 -9 36 4 15 2 24 -6 24 -7 0 -10 7 -6 16 4 9 2 22 -3 28 -5 6
-14 28 -19 49 -9 33 -8 37 6 35 13 -2 18 5 19 32 5 67 6 72 30 83 30 13 30 31
1 22 -19 -6 -21 -5 -10 6 6 7 12 21 12 30 0 22 37 14 65 -15 11 -12 26 -21 33
-22 6 -1 32 -2 57 -3 35 -1 51 -8 75 -31 20 -19 41 -30 59 -30 24 0 28 -4 24
-19 -4 -16 -1 -19 16 -14 11 3 19 9 16 13 -8 13 26 21 40 10 6 -5 14 -8 16 -5
3 2 22 -2 44 -9 26 -9 47 -11 63 -5 16 6 34 4 59 -6 19 -8 46 -15 59 -15 13 0
24 -3 24 -8 0 -6 52 -27 87 -35 7 -2 16 -6 19 -10 4 -4 18 -7 30 -7 13 0 26
-4 29 -10 3 -5 16 -10 29 -10 12 0 26 -3 30 -7 14 -15 176 -28 176 -15 0 7 12
7 36 1 24 -7 39 -7 48 0 9 7 16 7 23 0 7 -7 15 -6 24 4 8 7 20 12 27 9 6 -2
12 5 13 15 0 10 3 13 5 6 4 -9 12 -9 32 -1 15 6 38 12 52 14 14 2 36 5 49 7
14 2 27 9 29 15 2 7 13 12 24 12 12 0 22 8 25 21 4 13 8 17 13 9 10 -17 111
86 134 138 11 23 22 42 25 42 12 0 10 84 -1 98 -6 7 -7 12 -2 11 20 -4 24 2
14 20 -7 15 -6 23 4 33 7 8 17 25 21 38 8 25 25 133 26 163 0 9 4 17 10 17 14
0 4 63 -11 68 -7 3 -10 0 -6 -6 10 -16 -4 -40 -27 -46 -19 -5 -20 -8 -7 -17
12 -9 11 -10 -7 -6 -17 4 -22 -1 -26 -27 -4 -23 0 -36 16 -50 l22 -19 -37 7
c-34 6 -38 5 -38 -14 0 -12 5 -30 10 -41 8 -15 6 -22 -9 -35 -15 -13 -17 -22
-10 -41 7 -20 5 -23 -14 -24 -17 -1 -18 -2 -4 -6 18 -5 24 -23 6 -23 -5 0 -8
-4 -5 -9 3 -5 -1 -12 -10 -15 -11 -4 -13 -10 -7 -19 5 -6 10 -22 11 -35 1 -21
-1 -22 -15 -10 -11 8 -14 9 -10 1 4 -7 9 -30 12 -53 3 -38 3 -39 -17 -29 -22
12 -22 13 -1 -39 3 -8 0 -10 -11 -6 -12 5 -15 2 -9 -12 4 -10 2 -15 -4 -11 -5
3 -24 -9 -41 -28 -22 -23 -38 -32 -52 -28 -11 3 -20 1 -20 -5 0 -21 -124 -49
-135 -31 -4 5 -17 6 -30 3 -20 -5 -27 -1 -35 21 -7 17 -14 24 -22 18 -24 -14
-37 -11 -44 9 -5 16 -8 18 -15 7 -7 -11 -9 -11 -9 2 0 9 6 22 13 28 15 12 11
67 -5 77 -6 4 -8 -2 -4 -14 6 -17 3 -19 -14 -15 -11 3 -20 12 -20 19 0 8 -5
14 -10 14 -6 0 -15 12 -20 26 -10 25 -30 25 -30 1 0 -7 -9 -13 -20 -14 -14 -1
-20 4 -20 18 0 12 -4 17 -11 14 -6 -4 -13 2 -16 13 -3 14 -10 18 -26 14 -16
-4 -19 -2 -14 11 5 13 -1 15 -40 10 -31 -3 -43 -1 -38 6 3 6 13 11 22 11 12 0
13 3 3 14 -8 11 -18 12 -35 6 -20 -8 -23 -6 -18 7 7 18 -7 13 -41 -16 -18 -15
-19 -15 -13 1 8 24 -4 31 -19 10 -13 -16 -13 -16 -14 1 0 25 -18 21 -23 -6 -3
-20 -5 -19 -20 13 -9 20 -16 28 -17 18 0 -11 -7 -18 -17 -17 -11 0 -13 3 -6 6
15 5 18 63 4 63 -5 0 -14 -7 -21 -15 -17 -20 -22 -19 -60 15 -27 24 -30 31
-17 36 13 5 14 10 5 30 -6 13 -15 24 -20 24 -4 0 -8 8 -8 19 0 10 -7 24 -16
32 -10 8 -13 21 -9 36 3 13 1 23 -5 23 -5 0 -10 -5 -10 -11 0 -8 -4 -9 -13 0
-8 6 -18 7 -22 3 -5 -4 -5 2 -1 12 4 13 0 23 -13 32 -12 9 -24 36 -32 72 -14
66 -29 89 -30 46 0 -27 -1 -28 -9 -6 -5 12 -14 22 -20 22 -6 0 -8 -6 -4 -12 5
-10 3 -10 -7 0 -14 13 -20 92 -6 92 4 0 7 5 7 10 0 6 -7 10 -15 10 -8 0 -15 5
-15 10 0 6 5 10 10 10 6 0 10 5 10 11 0 5 -4 7 -10 4 -5 -3 -10 -1 -10 4 0 6
5 11 10 11 6 0 10 8 10 19 0 15 -5 17 -27 13 -25 -5 -27 -4 -14 12 8 9 11 19
7 23 -3 3 1 15 11 25 21 23 6 24 -20 0 -19 -16 -20 -16 -14 1 5 13 -4 31 -28
60 -19 23 -34 46 -33 50 2 5 -5 13 -15 18 -9 6 -15 15 -11 20 3 6 -2 17 -12
24 -18 14 -18 14 0 15 11 0 16 5 13 14 -3 8 1 17 9 20 8 3 14 17 14 31 0 19 5
25 21 25 15 0 19 -5 15 -15 -3 -8 -2 -15 3 -15 15 0 27 24 25 50 -1 14 3 28
10 32 7 5 4 12 -9 22 -11 9 -14 16 -7 16 17 0 15 20 -3 20 -9 0 -12 6 -8 16 3
8 12 13 19 10 8 -3 14 1 14 9 0 8 9 15 20 15 10 0 42 5 70 11 42 9 51 14 47
29 -3 12 4 22 20 29 16 7 23 17 19 26 -3 8 -8 21 -11 28 -4 10 4 13 30 12 20
0 39 3 41 7 3 4 20 8 39 8 19 0 37 5 40 10 4 6 12 9 18 8 7 -1 23 4 35 11 13
7 35 10 48 7 15 -4 33 -1 47 9 12 8 29 15 38 15 9 0 29 6 44 14 l27 14 -42 25
c-38 23 -40 25 -18 30 18 5 20 9 10 19 -9 9 -46 14 -107 15 -91 1 -125 -10
-67 -23 52 -11 59 -14 93 -40 24 -18 28 -25 14 -22 -11 2 -27 -4 -36 -14 -20
-22 -120 -58 -161 -58 l-30 0 21 34 c12 18 21 50 21 71 l0 38 -71 -7 c-46 -5
-69 -4 -65 3 3 5 -2 12 -11 14 -13 3 -12 5 6 6 16 1 21 6 18 15 -3 8 1 17 9
20 9 3 108 3 222 0 175 -5 208 -8 218 -22 7 -9 10 -20 7 -25 -2 -4 0 -13 5
-20 5 -7 14 -27 21 -46 10 -30 9 -37 -8 -55 -31 -33 -42 -72 -30 -104 14 -34
17 -100 6 -131 -4 -15 -4 -28 3 -35 5 -5 10 -29 10 -52 0 -34 4 -44 20 -49 23
-7 22 -16 -12 -101 -34 -84 -4 -163 65 -169 17 -2 35 -3 40 -4 4 -1 7 -11 7
-23 0 -18 2 -20 9 -9 8 12 12 12 25 2 9 -8 16 -22 16 -32 0 -11 6 -19 13 -20
6 0 3 -4 -8 -8 -12 -5 -23 -4 -27 3 -6 8 -8 8 -8 -1 0 -6 4 -14 9 -17 4 -3 6
-16 4 -30 -4 -21 -2 -23 23 -18 23 4 26 2 22 -15 -9 -35 28 -25 40 10 10 31
10 32 11 5 1 -15 6 -30 12 -34 11 -7 9 13 -7 67 -3 12 4 20 25 27 16 6 37 22
46 35 20 31 46 42 56 25 6 -9 13 -9 34 0 14 7 39 12 54 12 l28 0 -32 63 c-36
71 -34 117 8 152 13 12 24 28 25 36 2 12 9 57 11 68 1 2 8 -2 16 -9 11 -10 18
-10 29 -1 11 9 15 9 19 -1 4 -10 7 -10 15 1 8 10 13 8 26 -10 9 -13 16 -29 16
-35 0 -7 7 -14 15 -18 19 -7 19 -5 -7 48 -12 25 -26 42 -31 39 -6 -3 -7 -1 -3
6 4 6 0 24 -9 38 -10 15 -33 56 -53 92 -19 36 -40 74 -47 84 -12 17 -13 16
-18 -4 -6 -21 -7 -22 -33 -5 -19 13 -29 15 -37 7 -8 -8 -7 -11 3 -11 11 0 12
-2 1 -12 -10 -11 -15 -10 -25 5 -7 9 -19 17 -26 17 -10 0 -10 -3 0 -15 7 -9 8
-15 2 -15 -5 0 -17 12 -27 26 -15 24 -16 28 -2 35 12 7 9 15 -19 45 -19 19
-32 40 -29 45 4 5 0 9 -8 9 -8 0 -22 9 -32 20 -10 11 -24 20 -32 20 -7 0 -13
6 -13 13 0 14 -67 87 -80 87 -12 0 -21 63 -10 74 5 5 9 19 9 31 -1 16 -2 17
-6 3 -7 -27 -22 -21 -18 7 1 16 -3 25 -11 25 -8 0 -14 -9 -14 -20 0 -11 -4
-20 -10 -20 -5 0 -10 5 -10 11 0 20 -34 38 -72 39 -47 0 -70 9 -61 24 3 6 -2
4 -13 -5 -22 -19 -94 -25 -75 -6 18 18 13 27 -19 27 -16 0 -30 5 -30 11 0 5 5
7 11 3 7 -4 10 -1 7 7 -5 13 -10 15 -51 18 -10 0 -15 6 -12 11 3 6 -1 10 -10
10 -11 0 -14 6 -9 25 6 26 -4 33 -23 14 -8 -8 -20 -8 -40 -2 -16 6 -41 6 -57
2 -42 -12 -45 -2 -5 15 22 9 38 11 46 5 7 -7 14 -6 18 1 3 5 4 10 1 10 -3 0 1
18 9 40 8 22 12 40 8 40 -3 0 1 7 8 16 11 13 10 18 -5 26 -15 8 -16 12 -5 19
22 14 39 10 33 -6 -11 -29 14 -15 28 15 7 17 16 30 20 30 5 0 8 5 8 10 0 15
-16 12 -34 -5 -8 -8 -21 -12 -29 -9 -8 3 -18 1 -22 -5 -3 -6 -15 -11 -26 -11
-12 0 -17 4 -13 11 4 8 -1 9 -16 4 -19 -6 -21 -4 -12 10 6 12 6 30 -1 52 -9
30 -8 37 6 48 25 18 21 26 -9 19 -27 -7 -44 7 -44 35 0 11 4 9 15 -5 13 -17
14 -18 15 -1 0 10 -7 20 -15 23 -10 4 -12 11 -6 23 12 22 -5 51 -29 51 -23 0
-27 15 -6 23 12 5 12 12 1 51 -9 28 -10 48 -4 51 15 10 11 35 -6 35 -15 0 -17
6 -19 58 -1 24 2 27 27 25 15 -1 25 2 22 8 -4 5 -15 9 -25 9 -22 0 -34 15 -25
30 5 8 12 7 22 -2 17 -14 51 -12 71 4 14 12 16 32 2 23 -6 -3 -10 4 -10 17 0
17 8 27 30 35 l30 11 -16 -31 c-14 -29 -14 -30 1 -12 11 14 18 16 23 8 5 -8
13 -6 29 7 12 9 20 20 17 23 -3 3 3 3 14 0 11 -2 23 0 26 6 5 7 15 6 32 -5 17
-12 24 -13 24 -4 0 8 4 9 13 3 24 -18 69 -34 61 -22 -5 9 2 10 24 6 18 -4 32
-3 32 2 0 4 6 8 13 9 6 0 37 6 67 12 95 19 160 24 160 11 0 -6 4 -11 10 -11 5
0 6 7 3 17 -4 11 -3 14 5 9 15 -9 75 22 67 34 -3 5 3 20 14 32 12 12 21 17 21
10 0 -6 -4 -14 -10 -17 -5 -3 -10 -11 -10 -16 0 -6 4 -8 9 -5 5 4 11 0 13 -6
3 -7 8 6 11 30 6 32 12 42 26 42 11 0 22 8 24 18 3 10 5 6 6 -11 0 -16 -4 -37
-10 -49 -6 -11 -8 -22 -6 -25 8 -8 39 45 41 69 1 19 7 23 37 26 30 2 40 -2 54
-24 13 -21 19 -24 26 -13 12 19 11 6 -1 -27 -8 -21 -8 -29 2 -36 10 -6 10 -8
1 -8 -7 0 -13 -5 -13 -12 0 -6 7 -4 18 5 10 10 25 17 33 18 8 1 4 4 -8 7 -28
9 -18 28 20 37 26 7 28 6 21 -19 -6 -27 -6 -28 49 -29 19 -1 27 -6 27 -18 0
-10 4 -20 9 -23 4 -3 7 -24 5 -46 -2 -22 0 -40 5 -40 4 0 6 -11 3 -25 -2 -15
0 -25 7 -25 7 0 22 -11 34 -24 12 -13 31 -26 42 -29 18 -4 18 -5 -2 -6 -13 0
-23 -6 -23 -12 0 -6 7 -8 16 -5 13 5 15 1 10 -20 -5 -20 -1 -30 17 -45 25 -19
42 -69 25 -69 -5 0 -6 -5 -3 -11 4 -6 13 -8 21 -5 11 4 14 -4 14 -34 0 -39 11
-67 39 -103 8 -9 11 -20 7 -25 -7 -7 -12 -8 -38 -11 -7 0 -4 -7 7 -14 11 -9
15 -19 10 -27 -6 -9 -9 -9 -15 0 -5 8 -9 7 -13 -5 -4 -9 -1 -18 8 -21 29 -12
2 -25 -36 -19 -25 4 -39 3 -39 -4 0 -6 -4 -11 -10 -11 -15 0 -50 -38 -50 -55
0 -9 -7 -18 -15 -21 -8 -4 -15 -15 -15 -25 0 -10 -7 -19 -15 -19 -20 0 -7 -30
14 -31 13 0 13 -2 2 -6 -8 -3 -25 -17 -38 -29 -13 -13 -27 -24 -31 -24 -4 0
-26 -17 -49 -37 -45 -42 -77 -93 -88 -141 -3 -18 -10 -32 -15 -32 -4 0 -10 -6
-13 -13 -7 -19 31 -19 60 0 24 16 26 15 48 -13 34 -41 31 -48 -16 -40 -29 5
-38 3 -33 -5 4 -8 -3 -9 -24 -4 -25 5 -30 3 -28 -11 4 -28 28 -32 121 -22 50
6 124 11 166 12 52 1 75 5 72 12 -6 16 29 27 38 12 9 -14 39 7 39 28 0 22 23
6 48 -31 12 -19 29 -35 38 -35 28 0 42 -26 53 -100 7 -41 14 -76 17 -79 2 -3
89 1 192 9 103 7 221 14 262 16 41 1 149 7 240 13 91 6 177 11 193 11 27 0 27
0 27 68 l-1 67 -23 -28 c-18 -23 -25 -26 -34 -15 -6 7 -9 31 -7 53 5 51 13
208 25 510 5 132 12 254 15 270 15 101 25 326 25 596 l0 309 -119 0 -118 0 -6
-76 c-3 -42 -7 -77 -9 -79 -2 -2 -15 -6 -31 -10 -24 -6 -27 -4 -27 16 0 13 -9
44 -20 68 -11 24 -20 52 -20 62 0 15 -7 19 -34 19 -34 0 -35 0 -42 -57 -4 -32
-8 -112 -9 -178 -2 -123 -11 -185 -26 -185 -5 0 -9 -7 -9 -15 0 -19 -40 -95
-50 -95 -5 0 -15 -6 -22 -12 -14 -14 -30 -22 -118 -58 -63 -26 -258 -96 -310
-112 -19 -5 -41 -15 -49 -21 -10 -9 -16 -7 -26 6 -6 9 -15 13 -19 9 -4 -4 -5
4 -2 18 3 14 8 47 11 74 5 35 9 45 16 35 7 -11 9 -10 9 5 0 15 5 17 30 13 16
-4 30 -3 30 1 0 13 68 34 88 28 18 -6 61 5 152 39 25 10 74 19 110 22 36 2 70
9 77 16 15 14 26 134 13 142 -5 3 -42 -3 -82 -14 -40 -11 -98 -23 -128 -26
-30 -4 -77 -16 -105 -26 -27 -11 -65 -19 -83 -19 -18 0 -47 -7 -63 -16 -17 -8
-37 -14 -46 -12 -32 6 -69 147 -43 163 6 4 8 10 5 15 -11 17 6 59 21 53 9 -3
12 0 9 9 -4 10 3 13 27 13 18 -1 42 -5 54 -9 14 -4 29 0 46 14 21 16 35 19 75
14 31 -4 43 -2 35 4 -11 7 -10 11 5 16 26 11 210 45 253 48 28 1 40 20 40 60
l0 40 -146 -3 c-91 -2 -161 -9 -183 -17 -20 -7 -54 -15 -76 -17 -22 -2 -66
-10 -98 -18 -49 -12 -59 -12 -64 -1 -2 7 -2 18 2 23 4 7 -5 9 -24 7 -21 -2
-28 0 -24 10 4 12 -226 14 -1436 14 l-1441 0 0 -1154z m2910 1098 c0 -9 -5
-14 -12 -12 -18 6 -21 28 -4 28 9 0 16 -7 16 -16z m353 -11 c-7 -3 -10 -10 -8
-16 8 -20 -11 -40 -30 -33 -14 5 -15 9 -6 20 10 11 8 15 -6 19 -15 3 -14 6 7
14 14 6 32 8 39 5 10 -4 11 -7 4 -9z m-263 -13 c0 -5 -10 -10 -22 -10 -19 0
-20 2 -8 10 19 13 30 13 30 0z m300 -14 c0 -3 -4 -8 -10 -11 -5 -3 -10 -1 -10
4 0 6 5 11 10 11 6 0 10 -2 10 -4z m-365 -16 c3 -5 1 -10 -4 -10 -6 0 -11 5
-11 10 0 6 2 10 4 10 3 0 8 -4 11 -10z m52 -16 c-3 -3 -12 -4 -19 -1 -8 3 -5
6 6 6 11 1 17 -2 13 -5z m683 -178 c0 5 5 2 10 -6 9 -13 13 -12 29 8 12 13 25
20 35 16 18 -7 22 -34 6 -34 -6 0 -2 -10 10 -22 11 -12 20 -25 20 -30 0 -4 11
-8 23 -8 31 0 40 -10 24 -28 -8 -10 -12 -53 -12 -126 0 -61 -8 -201 -17 -311
-9 -110 -22 -274 -28 -365 -8 -121 -16 -173 -28 -194 -27 -45 -115 -67 -200
-50 -27 5 -31 11 -41 61 -7 35 -7 61 -1 72 5 10 9 26 10 37 3 87 23 273 46
433 9 58 17 125 19 148 2 23 8 51 14 62 6 11 11 42 11 70 0 27 4 52 9 56 12 7
10 45 -2 45 -5 0 -5 6 1 13 5 6 8 26 5 42 -12 75 -9 120 8 109 5 -3 12 2 16
12 6 16 7 15 20 -2 7 -10 13 -14 13 -8z m-1081 -92 c16 10 14 -3 -3 -19 -12
-12 -15 -12 -20 1 -9 24 -7 41 3 25 5 -7 14 -10 20 -7z m31 -24 c0 -5 -5 -10
-11 -10 -5 0 -7 5 -4 10 3 6 8 10 11 10 2 0 4 -4 4 -10z m43 -35 c-3 -8 -9
-15 -14 -15 -10 0 -12 24 -3 33 11 11 24 -3 17 -18z m-1042 -142 c12 -31 -5
-58 -21 -33 -7 11 -10 11 -10 2 0 -7 -4 -10 -10 -7 -16 10 -12 23 9 30 12 4
18 12 14 21 -3 7 -2 14 1 14 4 0 11 -12 17 -27z m1129 -53 c0 -5 -5 -10 -11
-10 -5 0 -7 5 -4 10 3 6 8 10 11 10 2 0 4 -4 4 -10z m662 -92 c-2 -29 -8 -58
-13 -63 -4 -6 -10 -65 -13 -132 -2 -67 -9 -131 -15 -142 -6 -11 -11 -31 -11
-44 0 -28 -67 -164 -84 -170 -6 -2 -38 0 -71 5 -33 5 -81 9 -107 9 -49 -1 -71
14 -47 31 11 7 11 11 2 15 -7 2 -13 11 -13 18 0 8 -8 16 -17 19 -29 10 -82
145 -86 221 -3 71 -7 67 166 157 89 47 189 94 222 104 33 10 64 21 69 25 18
15 23 -1 18 -53z m-5 -90 c-3 -8 -6 -5 -6 6 -1 11 2 17 5 13 3 -3 4 -12 1 -19z
m-1814 -178 c-3 -11 -12 -20 -19 -20 -12 0 -12 4 -2 20 7 11 16 20 19 20 4 0
5 -9 2 -20z m1357 -375 c7 -8 19 -15 26 -15 8 0 14 -4 14 -8 0 -21 -41 -40
-120 -55 -47 -9 -102 -21 -122 -26 -21 -5 -35 -5 -32 0 11 19 147 100 159 95
8 -3 16 2 19 10 7 18 40 18 56 -1z m46 -81 c7 -27 -7 -51 -24 -40 -8 5 -9 25
-3 59 3 17 21 5 27 -19z m-159 -41 c62 -11 68 -54 15 -109 -27 -29 -106 -63
-118 -51 -3 3 4 16 15 29 28 30 37 65 23 100 -6 17 -7 28 -1 28 6 0 7 5 3 12
-5 8 -2 9 12 4 10 -4 34 -10 51 -13z m-96 -68 c0 -13 -41 -19 -41 -7 0 11 20
22 33 18 5 -1 8 -6 8 -11z m269 1 c-1 -5 4 -13 12 -17 10 -7 9 -9 -4 -9 -10 0
-18 6 -18 14 0 8 -6 17 -12 20 -7 3 -5 5 5 3 10 -1 17 -6 17 -11z m27 -78 c-3
-8 -6 -5 -6 6 -1 11 2 17 5 13 3 -3 4 -12 1 -19z m-27 -19 c0 -5 -4 -9 -10 -9
-5 0 -10 7 -10 16 0 8 5 12 10 9 6 -3 10 -10 10 -16z m40 -9 c0 -5 -8 -10 -17
-10 -15 0 -16 2 -3 10 19 12 20 12 20 0z m-1357 -95 c1 -5 -10 -11 -25 -13
-16 -2 -28 1 -28 7 0 20 49 26 53 6z m252 -15 c-3 -5 -10 -10 -16 -10 -5 0 -9
5 -9 10 0 6 7 10 16 10 8 0 12 -4 9 -10z m-565 -634 c0 -3 -4 -8 -10 -11 -5
-3 -10 -1 -10 4 0 6 5 11 10 11 6 0 10 -2 10 -4z m90 -250 c0 -11 -19 -15 -25
-6 -3 5 1 10 9 10 9 0 16 -2 16 -4z m-10 -67 c0 -5 -4 -9 -10 -9 -5 0 -10 7
-10 16 0 8 5 12 10 9 6 -3 10 -10 10 -16z m-135 -529 c3 -5 4 -14 1 -19 -9
-13 -46 -1 -46 15 0 16 36 19 45 4z m903 -95 c1 -18 -2 -23 -14 -18 -13 5 -13
7 -2 14 7 5 9 9 5 9 -5 0 -5 5 -2 10 9 14 10 13 13 -15z m-1733 -235 c-3 -5
-1 -10 5 -10 6 0 8 -4 5 -10 -3 -5 -1 -10 6 -10 10 0 10 -3 1 -12 -14 -14 -17
-11 -26 25 -4 17 -2 27 4 27 6 0 8 -4 5 -10z m-434 -228 c-13 -24 -40 -46 -47
-39 -4 3 7 17 22 31 35 31 38 31 25 8z"/>
<path d="M1601 3134 c0 -11 3 -14 6 -6 3 7 2 16 -1 19 -3 4 -6 -2 -5 -13z"/>
<path d="M1630 3080 c0 -5 4 -10 9 -10 6 0 13 5 16 10 3 6 -1 10 -9 10 -9 0
-16 -4 -16 -10z"/>
<path d="M2800 3029 c0 -5 5 -7 10 -4 6 3 10 8 10 11 0 2 -4 4 -10 4 -5 0 -10
-5 -10 -11z"/>
<path d="M1661 2974 c0 -11 3 -14 6 -6 3 7 2 16 -1 19 -3 4 -6 -2 -5 -13z"/>
<path d="M1935 2510 c-3 -5 -1 -10 4 -10 6 0 11 5 11 10 0 6 -2 10 -4 10 -3 0
-8 -4 -11 -10z"/>
<path d="M2505 2360 c-3 -5 1 -10 9 -10 9 0 16 5 16 10 0 6 -4 10 -9 10 -6 0
-13 -4 -16 -10z"/>
<path d="M2690 2273 c0 -5 -19 -8 -42 -8 -52 0 -57 -15 -12 -37 44 -23 100
-24 108 -2 9 25 7 41 -4 24 -5 -8 -10 -10 -10 -5 0 6 -9 16 -20 23 -11 7 -20
9 -20 5z"/>
<path d="M2505 2140 c2 -14 5 -32 5 -41 0 -9 6 -16 14 -16 13 0 13 4 2 26 -7
14 -16 33 -20 41 -3 8 -4 4 -1 -10z"/>
<path d="M2475 2130 c3 -5 8 -10 11 -10 2 0 4 5 4 10 0 6 -5 10 -11 10 -5 0
-7 -4 -4 -10z"/>
<path d="M2410 2110 c0 -5 4 -10 9 -10 6 0 13 5 16 10 3 6 -1 10 -9 10 -9 0
-16 -4 -16 -10z"/>
<path d="M1820 2090 c-20 -16 -22 -20 -7 -20 9 0 17 5 17 10 0 6 9 10 21 10
11 0 17 5 14 10 -9 14 -16 12 -45 -10z"/>
<path d="M3810 1959 c-63 -4 -227 -15 -365 -24 -137 -9 -279 -19 -315 -23 -60
-6 -65 -9 -65 -31 0 -15 6 -25 18 -27 9 -1 17 1 17 5 0 9 77 8 86 -2 4 -3 15
-2 24 3 18 10 412 24 658 24 l132 0 0 43 0 43 -37 -1 c-21 -1 -90 -5 -153 -10z"/>
<path d="M3860 1825 c-69 -7 -254 -22 -410 -34 -387 -29 -388 -29 -412 -53
-16 -16 -19 -27 -13 -52 7 -33 10 -51 20 -160 4 -41 10 -64 15 -55 4 7 4 43 0
79 -11 113 -6 126 56 141 109 25 193 5 272 -65 20 -18 45 -36 55 -39 9 -4 17
-15 17 -26 0 -11 7 -27 16 -35 14 -14 18 -14 46 0 31 16 32 16 57 -15 28 -34
61 -41 61 -13 0 9 -13 51 -30 92 -34 87 -37 116 -12 128 9 5 87 13 172 16 85
4 172 9 193 12 36 6 37 7 37 50 0 24 -3 43 -7 43 -5 -1 -64 -7 -133 -14z
m-342 -121 c23 -16 29 -57 13 -83 -8 -12 -14 -12 -40 -1 -17 7 -31 16 -31 20
0 4 -11 12 -25 18 -35 16 -33 49 3 55 51 8 58 7 80 -9z"/>
<path d="M1546 1695 c-3 -9 0 -15 9 -15 9 0 12 6 9 15 -4 8 -7 15 -9 15 -2 0
-5 -7 -9 -15z"/>
<path d="M1365 1680 c-8 -13 26 -59 43 -60 9 0 7 9 -7 29 -11 15 -18 31 -14
35 3 3 1 6 -5 6 -6 0 -14 -4 -17 -10z"/>
<path d="M3005 1661 c-3 -5 -1 -12 5 -16 5 -3 10 1 10 9 0 18 -6 21 -15 7z"/>
<path d="M2990 1603 c0 -22 2 -25 10 -13 13 20 13 40 0 40 -5 0 -10 -12 -10
-27z"/>
<path d="M3278 1585 c-3 -3 -3 -15 -1 -26 7 -26 38 -21 38 6 0 19 -25 32 -37
20z"/>
<path d="M3370 1574 c-11 -12 -11 -18 2 -31 20 -20 38 -9 38 23 0 27 -21 32
-40 8z"/>
<path d="M2977 1564 c-4 -4 -7 -17 -7 -28 1 -19 1 -20 11 -3 11 19 8 43 -4 31z"/>
<path d="M2642 1548 c-17 -17 -15 -26 7 -37 24 -13 34 7 17 32 -10 12 -15 14
-24 5z"/>
<path d="M2575 1510 c-3 -5 -3 -14 0 -20 3 -5 2 -10 -2 -10 -5 0 -9 -8 -9 -18
0 -14 6 -17 23 -14 13 2 23 11 23 18 0 12 5 11 25 -2 35 -23 42 -11 15 25 -21
31 -62 42 -75 21z"/>
<path d="M2770 1490 c23 -18 60 -27 60 -15 0 7 -57 35 -72 35 -7 0 -2 -9 12
-20z"/>
<path d="M2952 1485 c-6 -13 -7 -27 -3 -30 5 -2 12 7 15 21 9 35 2 40 -12 9z"/>
<path d="M3671 1499 c-15 -6 -21 -14 -17 -25 3 -9 9 -33 12 -53 l6 -38 -73
-11 c-151 -23 -452 -42 -509 -32 l-25 5 3 -85 c6 -187 24 -345 44 -390 29 -65
59 -123 74 -140 15 -18 29 -56 91 -245 25 -77 54 -149 64 -161 11 -11 19 -26
19 -32 0 -15 9 -15 192 3 84 8 200 20 258 25 58 6 124 13 148 16 l42 5 0 55
c0 55 0 56 -27 50 -61 -11 -438 -46 -495 -46 -23 0 -31 43 -33 195 -2 72 -6
143 -10 158 -13 50 1 54 240 72 121 8 244 18 273 21 l52 5 0 179 c0 157 -2
180 -17 188 -20 12 -167 4 -206 -10 -26 -10 -27 -12 -12 -34 16 -24 20 -64 8
-64 -5 0 -23 9 -41 20 -25 15 -32 25 -27 40 10 31 -21 39 -125 29 -52 -5 -111
-11 -131 -14 -31 -5 -40 -3 -53 17 -21 29 -20 61 2 87 16 19 36 22 310 38
l292 17 0 34 c0 34 0 34 -37 28 -53 -10 -227 -24 -233 -19 -2 2 -3 23 -2 47 2
53 -20 79 -57 65z m119 -461 c0 -44 -13 -62 -38 -54 -30 10 -38 43 -16 67 28
31 54 25 54 -13z m-142 0 c16 -16 15 -53 -1 -67 -19 -15 -27 -4 -27 41 0 39 8
46 28 26z"/>
<path d="M2474 1465 c-8 -20 4 -65 16 -65 6 0 10 11 10 24 0 14 5 28 10 31 17
11 11 25 -10 25 -11 0 -23 -7 -26 -15z"/>
<path d="M2436 1442 c-4 -13 -5 -26 -2 -29 10 -11 18 4 14 29 l-4 23 -8 -23z"/>
<path d="M2937 1430 c-8 -24 -27 -83 -27 -86 0 -2 5 -4 10 -4 6 0 10 9 10 20
0 10 6 23 13 27 9 5 11 17 7 33 -5 18 -9 21 -13 10z"/>
<path d="M3063 1400 c0 -25 2 -35 4 -22 2 12 2 32 0 45 -2 12 -4 2 -4 -23z"/>
<path d="M2730 1385 c-18 -22 -64 -45 -88 -45 -21 0 -75 -39 -56 -40 7 0 14
-7 17 -14 4 -10 1 -13 -9 -9 -8 3 -21 0 -28 -6 -11 -9 -15 -9 -19 1 -4 9 -15
3 -35 -19 -27 -28 -31 -29 -35 -12 -5 19 -37 27 -37 9 0 -6 -28 -10 -64 -10
-36 0 -77 -5 -92 -10 -15 -6 -44 -12 -63 -14 -20 -2 -55 -7 -78 -11 -28 -5
-50 -3 -70 7 -17 8 -38 11 -53 7 -42 -12 -60 -10 -60 7 0 8 5 12 10 9 6 -4 23
5 37 19 14 14 29 26 33 26 4 0 5 14 1 32 -9 42 -31 49 -31 10 0 -17 -6 -32
-15 -36 -8 -3 -15 -1 -15 4 0 6 -7 10 -15 10 -9 0 -16 -10 -16 -27 -1 -16 -2
-36 -3 -45 -1 -9 -10 -23 -20 -31 -20 -15 -14 -37 10 -37 8 0 14 -10 14 -24 0
-24 16 -36 50 -36 10 0 20 -6 23 -14 11 -29 93 -45 200 -40 118 6 152 16 154
46 2 20 1 20 -12 2 -14 -18 -14 -18 -15 6 0 20 -2 22 -10 10 -9 -13 -11 -13
-20 0 -12 18 25 54 44 43 15 -10 56 -12 56 -3 0 11 34 7 42 -5 4 -5 8 -1 8 10
0 15 3 17 9 7 7 -11 9 -10 15 3 3 9 10 13 16 10 5 -3 10 1 10 9 0 9 6 13 13
10 8 -3 20 2 27 11 29 35 40 9 15 -39 -21 -39 -18 -56 4 -29 10 12 34 30 52
41 46 25 79 76 79 122 0 23 8 48 21 64 23 29 21 48 -1 21z m-120 -145 c0 -5
-4 -10 -10 -10 -5 0 -10 5 -10 10 0 6 5 10 10 10 6 0 10 -4 10 -10z m-216 -21
c-3 -5 -21 -9 -40 -9 -46 0 -36 16 10 17 20 1 33 -3 30 -8z m-94 -79 c0 -5 -5
-10 -11 -10 -5 0 -7 5 -4 10 3 6 8 10 11 10 2 0 4 -4 4 -10z"/>
<path d="M2117 1373 c-4 -3 -7 -11 -7 -17 0 -6 5 -5 12 2 6 6 9 14 7 17 -3 3
-9 2 -12 -2z"/>
<path d="M2155 1364 c7 -8 18 -14 24 -14 6 0 11 6 11 14 0 8 -10 14 -24 14
-21 0 -23 -3 -11 -14z"/>
<path d="M2055 1330 c3 -5 8 -10 11 -10 2 0 4 5 4 10 0 6 -5 10 -11 10 -5 0
-7 -4 -4 -10z"/>
<path d="M2110 1317 c0 -16 3 -17 15 -7 8 7 15 16 15 20 0 3 -7 7 -15 7 -8 0
-15 -9 -15 -20z"/>
<path d="M2905 1307 c-4 -10 -5 -21 -1 -24 10 -10 18 4 13 24 -4 17 -4 17 -12
0z"/>
<path d="M1860 1295 c0 -8 -5 -15 -11 -15 -6 0 -9 -7 -5 -15 3 -8 1 -26 -4
-40 -5 -14 -6 -25 -2 -25 19 0 44 28 45 51 1 14 8 26 15 26 8 0 10 -8 6 -21
-7 -24 -1 -20 14 9 9 18 7 21 -11 22 -12 1 -23 7 -25 13 -5 15 -22 12 -22 -5z"/>
<path d="M2545 1300 c-3 -5 -1 -10 4 -10 6 0 11 5 11 10 0 6 -2 10 -4 10 -3 0
-8 -4 -11 -10z"/>
<path d="M2110 1269 c0 -5 5 -7 10 -4 6 3 10 8 10 11 0 2 -4 4 -10 4 -5 0 -10
-5 -10 -11z"/>
<path d="M2885 1250 c-8 -13 -1 -24 14 -19 6 3 7 10 2 18 -6 10 -10 10 -16 1z"/>
<path d="M1810 1229 c0 -5 5 -7 10 -4 6 3 10 8 10 11 0 2 -4 4 -10 4 -5 0 -10
-5 -10 -11z"/>
<path d="M1688 1168 c9 -9 15 -9 24 0 9 9 7 12 -12 12 -19 0 -21 -3 -12 -12z"/>
<path d="M2476 1118 c3 -5 10 -6 15 -3 13 9 11 12 -6 12 -8 0 -12 -4 -9 -9z"/>
<path d="M2490 1063 c-8 -3 -26 -10 -40 -16 -14 -6 -29 -9 -34 -8 -13 3 -56
-20 -56 -30 0 -4 11 -6 25 -3 17 3 25 0 25 -10 0 -7 9 -16 19 -19 16 -4 21 2
26 25 6 23 9 27 21 17 11 -9 14 -8 14 6 0 11 5 15 15 11 10 -4 15 1 15 14 0
21 -4 22 -30 13z"/>
<path d="M1775 1031 c-6 -11 9 -23 19 -14 9 9 7 23 -3 23 -6 0 -12 -4 -16 -9z"/>
<path d="M1901 910 c-14 -8 -7 -30 9 -30 11 0 21 28 12 34 -5 3 -14 1 -21 -4z"/>
<path d="M3827 750 c-10 -38 3 -60 34 -60 35 0 46 21 31 56 -15 30 -57 33 -65
4z"/>
<path d="M3490 741 c-20 -6 -25 -14 -26 -42 -2 -56 11 -79 45 -79 41 0 61 30
51 77 -5 20 -15 40 -22 44 -15 10 -13 10 -48 0z"/>
<path d="M1345 660 c-3 -5 -1 -10 4 -10 6 0 11 5 11 10 0 6 -2 10 -4 10 -3 0
-8 -4 -11 -10z"/>
<path d="M476 652 c-3 -5 1 -9 9 -9 8 0 12 4 9 9 -3 4 -7 8 -9 8 -2 0 -6 -4
-9 -8z"/>
<path d="M1380 650 c0 -5 9 -10 21 -10 11 0 17 5 14 10 -3 6 -13 10 -21 10 -8
0 -14 -4 -14 -10z"/>
<path d="M476 491 c-4 -5 3 -7 14 -4 23 6 26 13 6 13 -8 0 -17 -4 -20 -9z"/>
<path d="M2477 443 c-4 -3 -7 -22 -7 -41 0 -19 -4 -51 -10 -71 -31 -114 -60
-254 -60 -290 l0 -41 69 0 c88 0 99 5 107 46 3 19 10 37 15 40 5 3 9 12 9 21
0 24 31 83 44 83 6 0 12 -18 13 -43 1 -23 2 -46 3 -52 8 -37 -2 -84 -17 -88
-10 -3 48 -5 129 -6 134 -1 150 1 184 21 50 29 78 60 82 88 l2 22 -17 -20
c-25 -29 -73 -40 -73 -17 0 22 78 96 125 118 19 9 35 21 35 26 0 15 -27 32
-72 46 -34 10 -42 17 -40 32 2 17 -6 21 -65 31 -45 8 -71 8 -79 1 -8 -7 -14
-7 -19 1 -3 5 -13 10 -22 10 -9 0 -27 10 -40 22 -14 13 -23 16 -23 9 0 -20
-41 -72 -54 -68 -6 2 -11 12 -11 23 0 19 -4 21 -59 23 -21 1 -27 5 -22 16 3
10 -1 15 -12 15 -10 0 -28 7 -41 16 -18 13 -25 14 -31 4 -5 -9 -11 -6 -22 9
-8 11 -18 18 -21 14z m221 -145 c-2 -6 -10 -14 -16 -16 -7 -2 -10 2 -6 12 7
18 28 22 22 4z m-160 -46 c2 -26 -4 -53 -15 -74 l-18 -33 -3 64 c-2 35 -1 70
2 78 11 27 31 6 34 -35z m536 -1 c3 -5 -3 -11 -14 -14 -11 -3 -18 -1 -15 3 3
5 -1 11 -7 13 -7 3 -3 6 9 6 12 1 24 -3 27 -8z m-155 -20 c22 -14 -13 -64 -40
-56 -10 4 -19 2 -19 -3 0 -5 8 -12 19 -15 13 -3 20 -18 25 -51 8 -51 3 -66
-21 -66 -9 0 -25 -7 -35 -17 -10 -9 -20 -14 -23 -11 -6 6 -8 88 -3 163 3 49 4
50 38 56 19 4 37 7 40 8 3 0 11 -3 19 -8z m35 -42 c-9 -10 -22 -19 -27 -19 -6
0 -1 10 11 23 12 13 23 30 23 38 1 8 3 7 6 -4 3 -10 -3 -27 -13 -38z"/>
<path d="M2682 398 c5 -15 28 -18 29 -3 0 6 -7 12 -17 13 -10 3 -15 -1 -12
-10z"/>
<path d="M507 280 c3 -11 9 -17 15 -14 5 3 4 12 -3 20 -16 19 -18 18 -12 -6z"/>
<path d="M1050 140 c0 -5 5 -10 10 -10 6 0 10 5 10 10 0 6 -4 10 -10 10 -5 0
-10 -4 -10 -10z"/>
<path d="M3845 104 c-60 -7 -176 -20 -256 -30 -81 -9 -152 -20 -159 -24 -7 -4
-9 -16 -5 -29 6 -21 10 -21 291 -21 l284 0 0 60 c0 70 16 65 -155 44z"/>
</g>
</svg>
