<?xml version="1.0" standalone="no"?>
<!DOCTYPE svg PUBLIC "-//W3C//DTD SVG 20010904//EN"
 "http://www.w3.org/TR/2001/REC-SVG-20010904/DTD/svg10.dtd">
<svg version="1.0" xmlns="http://www.w3.org/2000/svg"
 width="400.000000pt" height="400.000000pt" viewBox="0 0 400.000000 400.000000"
 preserveAspectRatio="xMidYMid meet">
<metadata>
Created by potrace 1.14, written by Peter Selinger 2001-2017
</metadata>
<g transform="translate(0.000000,400.000000) scale(0.100000,-0.100000)"
fill="#000000" stroke="none">
<path d="M0 3900 l0 -100 38 0 c20 0 52 9 70 20 37 23 78 26 85 8 3 -10 9 -10
26 0 11 6 39 12 61 12 33 0 40 -3 40 -19 0 -14 5 -18 20 -14 12 3 29 -2 40
-12 19 -17 20 -17 20 3 0 19 6 22 40 22 22 0 40 5 40 10 0 17 30 11 57 -10 16
-12 41 -20 64 -20 22 0 39 -4 39 -10 0 -5 18 -10 40 -10 22 0 40 5 40 10 0 6
-18 10 -40 10 -22 0 -40 5 -40 10 0 6 18 10 39 10 22 0 42 6 45 13 2 6 4 1 3
-12 -3 -34 21 -38 34 -5 7 21 12 25 18 15 11 -18 170 -18 181 -1 5 8 10 3 14
-12 6 -21 7 -22 20 -6 12 16 14 16 24 -5 19 -40 23 -65 11 -73 -9 -5 -10 -2
-6 10 5 13 3 17 -7 13 -9 -4 -17 1 -19 11 -2 9 -3 4 -1 -13 3 -16 10 -32 16
-36 9 -6 9 -11 0 -22 -7 -8 -14 -28 -15 -45 -1 -16 -5 -28 -9 -25 -5 2 -8 -8
-8 -23 0 -22 -2 -25 -15 -14 -18 15 -19 5 -6 -53 8 -34 7 -37 -10 -32 -23 8
-42 -2 -33 -17 4 -7 9 -6 14 2 4 7 13 9 20 5 10 -6 9 -10 -4 -17 -12 -7 -14
-14 -7 -27 11 -20 4 -61 -11 -61 -5 0 -7 -4 -3 -9 3 -5 1 -12 -5 -16 -6 -4 -8
-11 -5 -16 4 -5 -1 -9 -9 -9 -8 0 -18 -5 -22 -12 -4 -7 -3 -8 4 -4 14 9 17
-35 3 -50 -8 -8 -16 -60 -12 -74 1 -3 4 -48 6 -100 4 -98 8 -127 19 -170 4
-14 9 -38 11 -55 2 -16 4 -31 6 -32 6 -8 3 -63 -4 -63 -4 0 -1 -13 8 -29 13
-27 13 -31 -1 -45 -14 -15 -14 -16 3 -17 17 0 17 -1 -1 -8 -18 -7 -18 -8 -2
-14 9 -4 16 -12 14 -19 -1 -7 6 -29 17 -48 10 -19 19 -51 21 -70 l3 -35 -12
27 c-19 42 -56 80 -75 76 -23 -4 -28 -69 -8 -100 17 -26 33 -110 41 -212 6
-76 8 -82 35 -96 29 -16 32 4 6 35 -32 37 -45 178 -22 240 l14 39 16 -38 c9
-21 14 -41 12 -45 -9 -15 -7 -108 3 -166 6 -33 14 -82 16 -110 3 -27 10 -65
16 -82 6 -18 9 -40 7 -49 -6 -34 -48 20 -77 100 l-28 79 -5 -39 c-3 -22 -6
-88 -7 -149 -2 -203 -12 -307 -34 -350 -14 -28 -19 -55 -17 -90 1 -27 3 -62 4
-77 1 -35 17 -36 85 -2 50 25 54 31 107 135 30 60 56 109 58 109 6 0 56 -110
56 -122 0 -11 52 -120 60 -128 4 -3 15 -23 26 -45 11 -22 44 -83 74 -135 29
-52 76 -138 105 -190 66 -121 178 -304 216 -352 17 -21 25 -39 19 -43 -6 -3
-10 -11 -10 -17 0 -7 6 -6 15 2 14 12 19 7 16 -13 -1 -5 3 -6 9 -2 5 3 25 -5
43 -19 41 -32 139 -77 169 -78 13 -1 32 -9 43 -18 11 -10 52 -32 90 -50 39
-18 72 -37 73 -42 2 -4 8 -6 12 -3 10 6 110 -44 123 -60 6 -9 26 10 27 26 0 9
-95 54 -174 84 -117 43 -265 171 -336 290 -13 22 -39 59 -58 82 -20 25 -31 47
-26 54 4 7 3 9 -3 6 -6 -4 -16 0 -23 8 -17 21 -1 19 38 -5 19 -12 30 -15 26
-8 -5 8 -1 8 12 -2 35 -28 61 -38 110 -46 27 -4 63 -13 81 -20 37 -16 159 -12
192 5 11 7 21 18 21 26 0 8 4 15 9 15 5 0 19 14 31 30 18 25 19 34 10 45 -10
12 -8 17 11 24 13 5 18 10 10 10 -24 1 20 30 46 31 30 0 54 -10 47 -21 -3 -5
3 -6 12 -2 14 5 16 3 9 -13 -4 -10 -9 -32 -10 -49 -11 -110 -12 -146 -8 -189
l6 -49 23 26 c13 15 27 27 33 27 31 0 79 172 90 320 l7 95 13 -45 c7 -25 23
-67 36 -95 13 -27 31 -71 40 -98 20 -56 67 -122 154 -212 52 -54 66 -63 81
-55 24 13 30 13 30 0 0 -5 -3 -9 -7 -9 -5 1 -15 1 -23 0 -12 -1 -12 -3 -2 -10
8 -4 13 -10 12 -12 -1 -2 3 -15 8 -28 l9 -25 8 30 c5 16 8 32 7 37 -1 4 3 7 8
7 6 0 10 7 10 16 0 8 -4 12 -10 9 -6 -3 -10 -4 -10 -1 0 2 18 15 39 27 22 12
45 35 51 50 8 19 17 26 27 22 12 -5 14 -1 9 15 -4 11 -2 23 4 27 5 3 10 1 10
-5 0 -6 4 -8 10 -5 5 3 10 2 10 -3 0 -5 11 -21 24 -35 24 -26 25 -26 58 -9 18
9 41 15 51 14 30 -5 19 13 -45 71 -67 62 -73 65 -139 53 -35 -6 -36 -6 -66 56
-38 76 -143 307 -143 314 0 9 -84 140 -135 209 -53 72 -69 101 -68 123 1 27 4
30 25 24 22 -5 22 -5 5 21 -11 17 -13 26 -6 25 14 -3 55 105 53 139 -1 12 3
20 7 17 5 -3 10 1 10 8 5 45 8 70 18 125 6 34 11 66 10 70 -1 4 -1 10 0 13 1
3 4 47 7 99 3 52 10 105 15 118 5 14 8 63 8 111 -1 56 -4 76 -8 57 -6 -27 -8
-24 -14 25 -9 75 -9 92 3 85 6 -3 10 3 10 14 0 12 -3 21 -7 21 -5 0 -8 25 -9
55 0 39 -5 60 -18 73 -16 16 -18 16 -36 -6 l-19 -23 6 36 c4 26 2 35 -8 35 -9
1 -7 6 7 18 11 10 19 23 16 31 -2 7 2 17 9 22 8 5 9 9 3 9 -12 0 -12 28 -1 47
4 6 4 19 0 29 -4 10 -2 15 3 11 11 -6 12 62 1 80 -4 6 -2 13 5 15 26 9 17 48
-21 88 -27 28 -41 53 -45 82 -4 23 -10 46 -14 52 -6 10 -13 84 -14 145 0 15
-3 20 -8 12 -5 -9 -9 -8 -14 5 -4 10 -1 21 6 26 10 6 10 10 -2 18 -13 9 -13
11 0 21 13 10 13 10 0 6 -16 -5 -33 10 -38 32 -1 7 2 10 8 6 6 -4 10 6 10 24
0 17 -3 31 -7 31 -5 0 -20 11 -35 23 -20 18 -24 27 -16 35 8 8 5 14 -14 21
-15 5 -29 15 -34 22 -4 8 -3 10 4 5 7 -4 12 -1 12 9 0 10 -5 13 -12 9 -7 -5
-8 -3 -3 6 6 10 4 12 -8 7 -9 -3 -19 -1 -23 5 -4 7 -3 8 4 4 7 -4 12 -3 12 2
0 5 7 9 14 9 8 0 14 -3 14 -6 -3 -16 17 -44 39 -52 13 -5 28 -19 33 -31 6 -16
9 -18 9 -7 1 17 21 29 46 29 7 0 12 -8 11 -17 -1 -12 7 -17 24 -18 21 0 25 -5
25 -27 -1 -32 1 -33 21 -13 9 8 20 15 25 15 5 0 9 -7 9 -15 0 -20 9 -19 28 5
13 15 32 20 81 21 43 2 66 -1 69 -9 2 -7 9 -12 16 -12 7 0 17 -5 24 -12 7 -7
34 -11 68 -9 49 2 56 0 61 -18 6 -23 23 -27 41 -9 9 9 12 9 12 0 0 -15 77 -16
82 -2 2 6 19 -1 38 -15 l35 -26 5 26 5 25 38 -27 c28 -20 34 -29 25 -36 -9 -6
-7 -7 5 -3 10 3 34 6 53 6 24 0 34 5 34 15 0 8 4 15 9 15 5 0 14 -7 21 -15 7
-8 21 -15 31 -15 11 0 19 -7 19 -17 1 -17 1 -17 11 0 12 21 47 23 55 3 5 -12
32 -14 167 -9 89 3 165 10 168 16 4 5 16 0 28 -12 11 -11 25 -21 30 -21 5 0
12 -10 14 -22 l4 -23 2 23 c1 19 7 22 41 22 l40 0 0 260 0 260 -1045 0 c-940
0 -1045 -2 -1045 -16 0 -8 3 -13 8 -11 4 3 25 2 47 -3 27 -5 -3 -7 -89 -7 -71
-1 -125 2 -120 6 5 3 10 12 12 19 2 14 -44 17 -53 2 -3 -6 1 -7 9 -4 9 3 16 2
16 -4 0 -5 -11 -13 -24 -16 -13 -3 -32 -9 -42 -13 -13 -5 -15 -3 -9 8 7 12 6
12 -7 1 -9 -7 -29 -12 -44 -11 -16 2 -40 -1 -54 -5 -20 -7 -23 -6 -13 5 7 7
30 13 52 14 21 0 45 6 52 12 8 6 23 13 34 16 11 2 -364 5 -832 5 l-853 1 0
-99z m1533 76 c7 3 1 -4 -13 -15 -39 -32 -55 -27 -22 7 9 10 19 14 20 10 2 -5
9 -5 15 -2z m-144 -59 c-2 -1 -12 -9 -22 -16 -15 -12 -17 -12 -11 3 3 9 13 16
22 16 8 0 13 -1 11 -3z m321 -11 c0 -2 -7 -7 -16 -10 -8 -3 -12 -2 -9 4 6 10
25 14 25 6z m-427 -13 c9 -9 -12 -33 -29 -33 -12 0 -12 4 -2 20 14 21 21 24
31 13z m-135 -37 c2 -10 -12 -31 -35 -51 -30 -26 -41 -31 -52 -22 -12 10 -13
9 -7 -8 4 -11 4 -16 -1 -12 -4 5 -8 23 -9 40 l-2 32 19 -24 c21 -25 25 -21 9
10 -13 24 -2 25 17 2 14 -17 14 -17 9 0 -4 12 0 17 15 17 16 0 19 4 14 21 -5
15 -3 20 6 17 8 -3 16 -12 17 -22z m506 -24 c3 -5 -1 -9 -9 -9 -8 0 -12 4 -9
9 3 4 7 8 9 8 2 0 6 -4 9 -8z m279 -19 c-7 -2 -21 -2 -30 0 -10 3 -4 5 12 5
17 0 24 -2 18 -5z m-873 -87 c0 -2 -8 -10 -17 -17 -16 -13 -17 -12 -4 4 13 16
21 21 21 13z m1590 -62 c0 -14 -3 -14 -15 -4 -8 7 -15 14 -15 16 0 2 7 4 15 4
8 0 15 -7 15 -16z m1272 -161 c-3 -16 -7 -22 -10 -15 -4 13 4 42 11 42 2 0 2
-12 -1 -27z m-1732 -139 c41 -7 66 -47 55 -86 -7 -23 -7 -23 9 -3 9 11 16 16
15 10 -4 -33 3 -45 26 -45 18 0 25 -5 25 -20 0 -11 7 -23 15 -26 8 -4 15 -12
15 -19 0 -7 11 -20 24 -28 31 -20 64 -91 67 -142 1 -22 11 -54 20 -71 10 -17
25 -57 33 -90 19 -80 78 -211 114 -254 23 -28 31 -49 37 -105 4 -39 3 -66 -2
-62 -9 10 -10 14 -12 55 0 16 -8 37 -16 48 -13 17 -14 11 -9 -66 4 -52 1 -102
-6 -130 -6 -25 -12 -80 -12 -122 0 -43 -4 -76 -8 -73 -16 10 -16 -30 0 -43 13
-11 13 -12 0 -10 -10 2 -14 -4 -12 -15 2 -10 -7 -26 -19 -36 -20 -16 -20 -18
-4 -34 11 -12 12 -17 4 -17 -10 0 -10 -3 -1 -12 9 -9 9 -15 -1 -27 -10 -12 -9
-14 8 -7 18 7 18 5 -2 -14 -13 -11 -23 -31 -23 -43 0 -12 -9 -28 -21 -35 -12
-8 -18 -19 -15 -28 3 -8 1 -14 -5 -14 -6 0 -7 -5 -3 -12 5 -8 2 -9 -9 -5 -11
4 -17 1 -17 -8 0 -8 5 -15 12 -15 6 0 3 -9 -7 -20 -10 -11 -23 -20 -29 -20 -6
0 -5 4 3 9 9 6 10 11 2 15 -15 10 -33 -3 -24 -17 4 -7 -1 -5 -11 3 -17 14 -18
12 -15 -27 3 -23 1 -39 -3 -37 -5 3 -9 15 -9 27 -1 17 -2 18 -6 5 -4 -16 -6
-16 -19 -4 -8 8 -14 20 -14 27 0 7 -3 9 -7 5 -4 -3 -13 6 -20 21 -12 26 -12
27 -7 3 5 -23 4 -24 -7 -5 -23 39 -52 66 -60 54 -8 -14 0 -49 13 -49 5 0 7 4
3 9 -3 5 0 13 6 17 8 5 9 3 4 -6 -5 -9 -4 -11 3 -6 7 4 12 3 12 -3 0 -5 -9
-13 -21 -16 -14 -5 -19 -14 -17 -28 2 -14 -6 -29 -20 -41 -22 -18 -23 -19 -5
-39 16 -19 16 -20 1 -8 -15 11 -19 11 -24 -3 -3 -9 -10 -13 -15 -10 -5 3 -9 2
-10 -3 0 -4 -2 -18 -5 -31 -3 -17 3 -25 21 -34 14 -6 25 -15 25 -19 0 -11 -31
0 -53 19 -9 8 -20 12 -24 8 -4 -4 -2 -10 4 -14 8 -5 9 -13 3 -22 -7 -11 -10
-12 -10 -2 0 7 -5 10 -12 6 -7 -4 -8 -3 -4 4 4 7 3 12 -2 12 -10 0 -22 -22
-28 -47 -1 -7 5 -17 13 -22 12 -6 13 -13 4 -28 -10 -20 -6 -33 10 -33 5 0 6 6
3 14 -6 16 19 16 33 1 4 -4 2 -5 -6 0 -9 5 -12 3 -9 -6 3 -8 13 -16 23 -18 17
-3 18 -1 4 20 -19 30 -14 65 6 46 7 -6 11 -14 10 -17 -2 -3 8 -7 23 -8 26 -2
68 -32 45 -32 -7 0 -15 5 -18 10 -3 6 -16 9 -28 9 -17 -1 -18 -2 -4 -6 19 -5
22 -18 7 -28 -6 -3 -10 -1 -10 5 0 6 -5 8 -11 5 -6 -4 -8 -13 -5 -21 3 -7 0
-16 -6 -20 -6 -4 -8 -3 -5 3 6 10 -12 23 -41 29 -25 5 -43 28 -38 47 5 20 9
22 -44 -22 -3 -2 3 -1 12 2 15 5 49 -29 48 -50 0 -4 -5 0 -11 10 -5 9 -15 17
-20 17 -6 0 -7 -4 -4 -10 3 -5 1 -10 -4 -10 -6 0 -11 -7 -11 -15 0 -18 -16
-20 -26 -3 -4 7 -3 8 4 4 7 -4 12 -5 12 -2 0 2 2 11 5 18 4 9 -2 14 -14 14
-11 0 -17 -5 -13 -11 3 -5 -1 -4 -10 3 -14 11 -17 10 -23 -7 -7 -22 -25 -29
-25 -10 0 5 -4 7 -10 4 -5 -3 -10 0 -10 8 0 8 -7 18 -16 21 -9 3 -12 11 -8 18
5 10 4 10 -5 2 -13 -12 -4 -47 10 -38 5 3 9 0 9 -5 0 -14 -17 -14 -25 -1 -4 6
-11 7 -17 4 -7 -5 -8 -2 -3 7 5 8 5 11 0 7 -4 -4 -14 -3 -22 3 -10 9 -13 8
-13 0 0 -7 -4 -10 -9 -6 -17 10 -21 -12 -6 -25 8 -7 14 -27 14 -44 l-2 -31 -7
35 c-4 19 -8 31 -9 25 -1 -5 -8 1 -16 15 l-14 25 -7 -33 c-6 -29 -8 -31 -19
-15 -10 13 -10 20 -2 25 17 10 -19 22 -40 12 -10 -4 -22 -6 -28 -5 -5 1 -4 -3
3 -10 16 -17 15 -29 -3 -29 -18 0 -21 46 -2 53 9 4 9 7 0 17 -10 11 -14 5 -19
-28 -4 -23 -10 -39 -14 -37 -5 3 -6 15 -2 28 5 19 4 20 -11 8 -9 -7 -15 -17
-12 -21 3 -5 -4 -6 -14 -3 -18 5 -18 7 7 34 29 34 36 57 20 76 -7 9 -7 13 1
13 6 0 11 -5 11 -11 0 -5 5 -7 11 -3 8 4 8 0 0 -15 -10 -17 -9 -21 4 -21 8 0
15 9 15 21 0 11 4 17 10 14 6 -4 8 -15 5 -25 -4 -14 -1 -17 12 -15 10 2 20 4
23 4 3 1 -2 6 -10 11 -12 7 -13 15 -3 40 12 31 6 39 -16 18 -10 -11 -11 -10
-6 5 6 13 2 17 -16 17 -17 0 -20 3 -11 9 10 6 9 10 -7 14 -16 4 -19 10 -14 24
7 17 6 17 -11 1 -21 -22 -33 -24 -16 -3 10 12 10 15 -4 15 -9 0 -16 5 -16 11
0 5 -5 7 -12 3 -6 -4 -8 -3 -5 3 9 14 -19 37 -33 28 -7 -4 -9 4 -5 25 4 20 2
29 -5 25 -5 -3 -10 -13 -10 -21 0 -9 -5 -12 -11 -8 -7 4 -10 1 -7 -6 2 -7 -5
-24 -17 -36 -24 -26 -66 -29 -57 -4 3 8 2 12 -3 8 -4 -4 -9 -21 -11 -38 -3
-22 0 -29 9 -24 6 4 8 3 4 -1 -4 -5 -14 -10 -22 -11 -11 -2 -12 2 -6 15 6 10
5 24 -1 35 -8 15 -8 17 2 11 9 -5 11 -4 6 3 -12 19 -36 14 -29 -5 3 -10 -5 -6
-19 11 -14 16 -31 25 -37 22 -6 -4 -11 -3 -11 1 0 12 -48 15 -55 3 -3 -5 -13
-6 -22 -3 -11 4 -14 2 -11 -8 3 -8 10 -13 16 -12 6 2 9 -4 5 -13 -5 -13 -10
-11 -30 12 -16 19 -20 30 -12 35 8 5 7 9 -4 15 -13 8 -14 11 -1 28 13 18 14
18 14 2 0 -9 5 -14 10 -11 8 5 7 11 -1 21 -9 11 -15 11 -25 3 -20 -17 -32 -3
-30 36 1 35 -8 47 -17 23 -4 -10 -8 -10 -16 1 -6 10 -6 21 1 34 6 12 6 17 0
13 -12 -7 -25 21 -16 35 3 5 10 7 15 4 5 -3 6 1 3 9 -3 9 -9 14 -14 11 -9 -6
-32 37 -35 67 -1 13 -4 23 -5 23 -1 0 -3 14 -5 30 -1 17 -3 34 -4 39 0 4 -9 5
-18 1 -14 -5 -15 -3 -6 6 7 7 9 20 3 33 -4 11 -8 23 -8 26 0 3 -5 18 -11 33
-6 15 -10 31 -10 35 1 4 0 9 -1 12 -1 3 -3 12 -5 20 -2 8 -9 33 -14 55 -19 71
-26 138 -24 220 2 96 29 309 43 334 5 10 13 36 19 57 5 22 12 48 16 59 6 17 5
18 -5 5 -10 -13 -11 -12 -6 4 4 11 9 35 12 55 2 20 19 93 36 163 31 126 31
126 77 161 51 38 94 55 129 49 17 -3 21 -8 17 -21 -4 -15 2 -20 34 -25 21 -3
60 -2 86 3 25 5 55 7 65 4 10 -3 30 3 44 12 14 10 33 15 41 11 9 -3 13 -2 10
4 -12 19 18 10 36 -12 11 -12 19 -16 19 -8 0 7 9 3 20 -10 11 -13 20 -18 20
-11 0 8 5 7 16 -3 20 -20 25 -20 17 1 -4 11 -3 14 5 9 7 -4 12 -3 12 2 0 5 11
15 25 22 13 7 22 17 19 22 -8 12 19 5 28 -7 5 -6 8 -6 8 2 0 6 9 9 21 6 12 -4
25 0 30 8 7 11 9 11 9 1 0 -8 7 -11 18 -8 9 3 39 8 66 11 27 2 50 6 52 7 4 4
105 -1 144 -8z m413 -1089 c-3 -9 -8 -14 -10 -11 -3 3 -2 9 2 15 9 16 15 13 8
-4z m-348 -605 c3 -5 1 -10 -4 -10 -6 0 -11 5 -11 10 0 6 2 10 4 10 3 0 8 -4
11 -10z m-8 -42 c-3 -8 -6 -5 -6 6 -1 11 2 17 5 13 3 -3 4 -12 1 -19z m54 -5
c13 -16 12 -17 -3 -4 -10 7 -18 15 -18 17 0 8 8 3 21 -13z m-971 -15 c0 -9 3
-9 12 0 15 15 28 15 28 1 0 -5 -4 -8 -9 -5 -5 4 -11 0 -14 -6 -3 -10 -9 -8
-23 5 -11 10 -13 17 -6 17 7 0 12 -5 12 -12z m965 -7 c3 -5 2 -12 -3 -15 -5
-3 -9 1 -9 9 0 17 3 19 12 6z m-973 -46 c3 -13 1 -22 -3 -19 -9 5 -13 44 -5
44 2 0 6 -11 8 -25z m-101 -2 c13 -16 12 -17 -3 -4 -10 7 -18 15 -18 17 0 8 8
3 21 -13z m1048 -31 c-1 -15 -2 -15 -6 1 -2 9 -9 15 -14 11 -6 -3 -4 -15 6
-30 11 -18 12 -24 3 -24 -9 -1 -8 -5 3 -13 13 -10 14 -15 4 -24 -10 -9 -16 -9
-24 1 -6 7 -8 16 -4 19 3 4 2 7 -4 7 -21 0 -22 29 -2 54 22 28 40 26 38 -2z
m74 3 c-7 -21 -12 -19 -10 4 0 11 5 18 9 15 4 -3 5 -11 1 -19z m-1023 -16 c0
-5 -7 -6 -15 -3 -8 4 -15 13 -15 21 0 13 3 13 15 3 8 -7 15 -16 15 -21z m94
15 c3 -8 2 -12 -4 -9 -6 3 -10 10 -10 16 0 14 7 11 14 -7z m-144 -27 c0 -5 -4
-5 -10 -2 -5 3 -10 14 -10 23 0 15 2 15 10 2 5 -8 10 -19 10 -23z m293 18 c-3
-9 -8 -14 -10 -11 -3 3 -2 9 2 15 9 16 15 13 8 -4z m126 -29 c-3 -3 -11 5 -18
17 -13 21 -12 21 5 5 10 -10 16 -20 13 -22z m521 -24 c0 -26 -33 5 -36 34 l-3
29 19 -25 c11 -14 20 -31 20 -38z m-572 24 c-10 -7 -18 -18 -18 -24 0 -6 -4
-14 -10 -17 -15 -10 1 28 18 43 9 6 18 12 21 12 3 0 -2 -7 -11 -14z m-331 -28
c-3 -7 -5 -2 -5 12 0 14 2 19 5 13 2 -7 2 -19 0 -25z m82 -4 c6 4 11 0 11 -9
0 -9 3 -14 8 -12 4 3 12 -1 19 -8 17 -19 -11 -55 -38 -50 -27 5 -32 11 -34 36
-1 15 3 19 17 16 22 -6 24 8 3 17 -8 3 -15 11 -15 18 0 10 2 10 9 -1 5 -7 14
-10 20 -7z m751 6 c0 -5 -4 -10 -10 -10 -5 0 -10 5 -10 10 0 6 5 10 10 10 6 0
10 -4 10 -10z m-686 -21 c-3 -5 -10 -7 -15 -3 -5 3 -7 10 -3 15 3 5 10 7 15 3
5 -3 7 -10 3 -15z m136 1 c0 -5 -2 -10 -4 -10 -3 0 -8 5 -11 10 -3 6 -1 10 4
10 6 0 11 -4 11 -10z m15 -50 c3 -5 -1 -10 -10 -10 -9 0 -13 5 -10 10 3 6 8
10 10 10 2 0 7 -4 10 -10z m635 2 c0 -5 -7 -9 -15 -9 -8 0 -12 4 -9 9 3 4 9 8
15 8 5 0 9 -4 9 -8z m-370 -18 c0 -8 -5 -12 -10 -9 -6 4 -8 11 -5 16 9 14 15
11 15 -7z m-385 -15 c-6 -29 -15 -37 -15 -12 0 17 8 33 16 33 2 0 1 -10 -1
-21z m261 6 c-3 -9 1 -18 9 -21 11 -5 12 -11 4 -26 -6 -11 -8 -32 -4 -46 6
-26 6 -26 -9 -7 -8 11 -20 20 -27 20 -6 0 -14 10 -15 23 -3 16 1 22 15 22 11
0 22 -6 24 -12 4 -10 6 -10 6 -1 1 6 -3 15 -9 18 -14 8 -13 45 1 45 6 0 8 -7
5 -15z m-96 -29 c0 -2 -7 -9 -15 -16 -12 -10 -15 -10 -15 4 0 9 7 16 15 16 8
0 15 -2 15 -4z m174 -5 c3 -5 -1 -12 -10 -15 -9 -4 -14 -13 -10 -21 8 -21 2
-19 -20 7 -10 12 -13 18 -6 14 7 -4 15 -1 18 8 7 18 20 21 28 7z m106 -25 c0
-3 -4 -8 -10 -11 -5 -3 -10 -1 -10 4 0 6 5 11 10 11 6 0 10 -2 10 -4z m130
-152 c0 -2 -7 -4 -15 -4 -8 0 -15 4 -15 10 0 5 7 7 15 4 8 -4 15 -8 15 -10z
m890 -224 c0 -5 -5 -10 -11 -10 -5 0 -7 5 -4 10 3 6 8 10 11 10 2 0 4 -4 4
-10z m-1193 -175 c0 -8 -4 -12 -9 -9 -5 3 -6 10 -3 15 9 13 12 11 12 -6z"/>
<path d="M2087 3359 c7 -7 15 -10 18 -7 3 3 -2 9 -12 12 -14 6 -15 5 -6 -5z"/>
<path d="M2202 2754 c-6 -3 -10 -9 -7 -14 3 -4 -7 -11 -22 -15 -17 -4 -23 -9
-15 -14 6 -4 -3 -7 -21 -7 -33 0 -107 -30 -119 -48 -4 -6 -18 -11 -30 -11 -13
0 -23 -6 -23 -15 0 -8 -11 -17 -25 -21 -14 -4 -22 -7 -18 -8 4 -1 1 -13 -7
-27 -11 -22 -11 -33 1 -69 14 -39 18 -42 52 -43 20 -1 44 -2 52 -3 8 -1 31 -1
52 -1 31 2 35 5 31 22 -3 11 0 27 7 35 11 13 15 10 29 -17 28 -58 88 -51 119
14 12 24 22 36 23 28 1 -8 3 -24 4 -35 2 -27 15 -55 26 -55 4 0 6 7 2 16 -5
14 -3 15 15 5 27 -15 28 -31 2 -38 -11 -3 -20 -9 -20 -14 0 -5 -9 -9 -20 -9
-11 0 -20 5 -20 10 0 6 -4 10 -10 10 -5 0 -7 -6 -4 -13 3 -8 -2 -14 -10 -14
-8 0 -12 5 -9 10 4 6 -5 8 -21 5 -20 -4 -24 -2 -16 7 8 9 8 15 0 20 -5 3 -13
-1 -16 -9 -3 -9 -11 -13 -18 -9 -6 4 -32 8 -58 8 -37 1 -45 -2 -37 -11 6 -7 8
-19 4 -26 -4 -7 0 -5 8 5 10 12 17 14 22 7 3 -5 11 -7 17 -4 7 4 8 2 4 -4 -4
-7 -1 -12 6 -12 10 0 9 -3 -2 -11 -12 -9 -11 -10 8 -6 12 3 29 -1 37 -10 9 -8
15 -10 15 -3 0 7 6 8 19 1 10 -6 21 -8 24 -5 3 3 26 11 52 17 25 7 45 15 44
17 -2 3 8 17 21 31 78 83 137 184 119 205 -5 6 -6 14 -2 17 3 4 1 7 -6 7 -7 0
-9 5 -6 10 3 6 1 10 -6 10 -7 0 -10 3 -6 6 3 3 1 18 -4 34 -9 26 -15 28 -82
34 -40 3 -88 8 -107 11 -19 2 -41 2 -48 -1z m152 -113 c12 -1 16 -6 12 -16 -3
-10 1 -15 11 -15 44 0 -5 -12 -87 -21 -96 -11 -134 -2 -91 20 12 7 21 8 21 4
0 -4 6 0 13 9 13 18 39 25 77 22 14 -1 33 -2 44 -3z"/>
<path d="M1418 2645 c-3 -3 -20 -7 -37 -7 -17 -1 -31 -6 -31 -12 0 -6 -4 -5
-9 3 -6 9 -18 11 -42 5 -19 -4 -36 -8 -39 -9 -3 0 -22 -4 -44 -9 -35 -7 -38
-10 -34 -36 3 -21 0 -30 -14 -33 -10 -3 -18 -10 -18 -16 0 -6 8 -8 18 -5 15 5
15 4 1 -8 -15 -13 -22 -48 -9 -48 3 0 13 -16 20 -36 9 -22 26 -42 45 -51 16
-8 44 -28 60 -43 46 -43 93 -55 156 -42 65 13 121 36 143 58 16 15 15 17 -1
29 -25 18 -15 25 44 27 34 2 49 7 46 15 -3 8 5 11 23 10 25 -2 29 2 35 36 5
34 1 46 -29 90 -44 65 -46 67 -39 39 5 -22 4 -22 -11 -9 -16 14 -112 28 -112
16 0 -3 -10 -5 -22 -4 -13 2 -22 8 -20 15 2 10 0 11 -10 3 -20 -17 -28 -16
-46 7 -10 12 -20 19 -24 15z m14 -147 c-6 -6 -48 -12 -152 -22 -9 -1 -20 -5
-26 -8 -5 -4 -19 -5 -30 -3 -10 2 -25 4 -31 4 -7 1 -13 7 -13 14 0 33 25 47
89 51 34 3 65 7 68 9 2 3 26 -5 54 -16 27 -12 46 -24 41 -29z m108 -63 c7 -8
9 -15 5 -15 -5 0 0 -9 9 -19 18 -20 12 -30 -17 -26 -9 2 -15 0 -12 -4 2 -5 -7
-13 -21 -20 -20 -9 -24 -9 -18 1 6 9 3 9 -9 -1 -11 -9 -17 -10 -17 -2 0 6 -9
2 -20 -9 -28 -28 -98 -27 -134 1 -31 24 -34 43 -6 34 11 -4 20 -2 20 4 0 7 8
7 23 2 18 -7 24 -6 24 5 0 8 -5 14 -11 14 -6 0 -5 5 2 12 9 9 16 7 32 -7 27
-24 90 -11 105 23 11 26 27 28 45 7z"/>
<path d="M1396 2365 c4 -8 8 -15 10 -15 2 0 4 7 4 15 0 8 -4 15 -10 15 -5 0
-7 -7 -4 -15z"/>
<path d="M2265 2461 c-3 -5 -1 -12 5 -16 5 -3 10 1 10 9 0 18 -6 21 -15 7z"/>
<path d="M2233 2453 c-18 -7 -16 -23 2 -23 8 0 15 7 15 15 0 8 -1 15 -2 14 -2
0 -9 -3 -15 -6z"/>
<path d="M2025 2211 c8 -16 21 -36 29 -44 17 -17 7 -74 -13 -69 -6 1 -11 -2
-11 -7 0 -12 -63 -11 -70 0 -7 11 -28 -3 -32 -21 -3 -13 -65 -39 -96 -40 -7 0
-19 8 -28 19 -16 18 -60 18 -48 0 2 -5 -7 -11 -20 -15 -19 -4 -34 1 -57 20
-34 29 -57 33 -65 11 -4 -8 -11 -12 -17 -8 -6 4 -7 1 -2 -7 4 -7 2 -16 -6 -21
-8 -5 -9 -9 -3 -9 6 0 19 9 29 20 26 29 33 25 55 -26 24 -56 26 -94 4 -94 -8
0 -12 -4 -9 -10 3 -5 -1 -10 -10 -10 -8 0 -18 -7 -21 -15 -4 -8 -12 -15 -20
-15 -8 0 -14 -8 -14 -18 0 -10 -6 -19 -13 -19 -8 0 -14 6 -14 13 0 7 3 11 7 9
3 -2 11 5 18 16 10 15 10 19 -2 19 -8 0 -16 -7 -20 -15 -3 -8 -14 -15 -25 -15
-11 0 -24 -7 -29 -17 -9 -14 -10 -14 -16 5 -4 12 -12 22 -17 22 -6 0 -7 -5 -4
-10 3 -6 -1 -13 -10 -16 -14 -6 -14 -8 1 -19 11 -7 14 -17 9 -25 -5 -8 -4 -11
2 -7 6 4 13 -2 16 -12 3 -13 1 -18 -8 -14 -10 3 -12 -2 -8 -17 3 -11 8 -19 11
-16 2 3 21 -1 41 -9 36 -15 36 -15 12 4 -16 12 -20 21 -12 25 6 4 11 3 11 -1
0 -5 26 -8 57 -9 32 0 58 -5 60 -11 2 -6 13 -9 24 -6 15 4 18 2 13 -13 -4 -15
-4 -16 4 -5 6 8 17 11 25 8 8 -3 19 -1 25 5 13 13 32 2 32 -19 0 -11 -6 -14
-22 -10 l-23 6 23 -16 c23 -16 32 -40 10 -27 -7 4 -5 -2 5 -13 9 -11 17 -26
18 -34 0 -8 5 -2 11 14 11 29 28 37 28 11 0 -8 -3 -13 -7 -11 -5 3 -9 -7 -10
-21 l-1 -27 13 25 14 25 -1 -31 c-1 -17 5 -39 11 -50 11 -17 12 -17 7 6 -4 22
-4 23 8 8 7 -10 16 -15 19 -11 7 6 32 11 77 12 18 1 21 4 11 10 -11 7 -11 9 0
13 8 3 23 -2 33 -11 18 -15 18 -15 6 8 -6 13 -7 21 -2 17 17 -10 22 9 12 43
-5 19 -5 31 1 31 5 0 9 8 9 18 0 14 2 15 9 2 6 -8 7 -18 4 -24 -3 -5 -1 -6 5
-2 7 4 8 15 2 30 -6 16 -5 28 3 36 9 10 8 12 -5 7 -12 -4 -15 -2 -12 8 3 8 9
14 12 13 12 -2 45 15 63 33 20 20 90 42 99 31 3 -4 14 -7 25 -7 11 1 23 -3 26
-8 3 -5 9 -1 12 8 4 9 3 14 -2 11 -5 -3 -12 1 -15 10 -3 8 -2 13 3 10 5 -3 12
4 16 17 10 33 12 68 3 73 -4 3 -8 -1 -8 -8 0 -9 -3 -9 -10 2 -8 11 -12 12 -18
3 -6 -9 -13 -3 -26 18 -15 26 -20 28 -29 15 -15 -20 -41 -15 -70 12 -13 12
-27 19 -31 15 -4 -4 -4 0 -1 9 3 8 -1 22 -9 31 -18 17 -22 72 -6 82 5 3 41
-26 80 -64 39 -38 80 -73 91 -76 10 -4 19 -11 19 -16 0 -5 6 -4 14 3 12 11 12
15 -1 30 -9 10 -20 15 -24 12 -5 -3 -9 -1 -9 5 0 5 -9 12 -19 16 -12 4 -18 12
-14 21 3 9 -1 14 -15 14 -11 0 -25 7 -32 15 -7 8 -11 15 -9 15 2 0 -28 34 -68
75 -40 41 -75 75 -78 75 -3 0 1 -13 10 -29z m-70 -140 c3 -5 1 -12 -5 -16 -5
-3 -10 1 -10 9 0 18 6 21 15 7z m265 -141 c0 -5 -2 -10 -4 -10 -3 0 -8 5 -11
10 -3 6 -1 10 4 10 6 0 11 -4 11 -10z m-70 -20 c0 -5 -2 -10 -4 -10 -3 0 -8 5
-11 10 -3 6 -1 10 4 10 6 0 11 -4 11 -10z m-72 -38 c2 -8 -12 -12 -42 -13 -25
-1 -52 -2 -58 -3 -7 -1 -13 6 -13 14 0 9 10 15 23 16 12 1 25 4 28 7 9 8 57
-8 62 -21z m-130 -17 c-2 -5 -9 -10 -16 -12 -18 -2 -29 -13 -13 -13 7 0 9 -4
6 -10 -3 -5 -18 -10 -33 -10 -20 0 -23 3 -13 9 25 16 -19 18 -74 3 -27 -7 -60
-11 -72 -9 -13 2 -23 1 -23 -2 0 -3 -11 -6 -24 -6 -13 0 -22 5 -19 11 2 6 12
11 21 10 9 0 16 4 15 11 -2 7 4 10 13 6 28 -11 59 -9 69 5 7 9 18 10 34 4 15
-5 41 -4 70 4 50 14 64 13 59 -1z m-444 -31 c5 -14 4 -15 -9 -4 -17 14 -19 20
-6 20 5 0 12 -7 15 -16z m33 -36 c-3 -8 -6 -5 -6 6 -1 11 2 17 5 13 3 -3 4
-12 1 -19z m476 -17 c-21 -22 -32 -26 -45 -20 -14 8 -16 6 -11 -7 5 -14 2 -16
-15 -12 -12 4 -22 2 -22 -2 0 -5 -19 -8 -42 -8 -23 0 -44 -5 -46 -11 -7 -21
-32 -12 -29 11 1 12 -2 23 -8 23 -5 0 -19 6 -30 12 -16 10 -5 12 65 11 47 0
93 3 104 7 20 9 74 22 94 24 7 1 1 -12 -15 -28z m-133 -155 c0 -3 -4 -8 -10
-11 -5 -3 -10 -1 -10 4 0 6 5 11 10 11 6 0 10 -2 10 -4z"/>
<path d="M1670 2166 c-12 -33 -12 -36 -1 -36 9 0 22 52 15 59 -2 2 -8 -8 -14
-23z"/>
<path d="M1568 2003 c-10 -2 -18 -9 -18 -14 0 -6 8 -5 20 1 11 6 20 13 20 15
0 3 -1 4 -2 4 -2 -1 -11 -3 -20 -6z"/>
<path d="M2158 1981 c4 -10 1 -12 -8 -6 -9 5 -11 4 -6 -4 6 -9 11 -9 21 -1 10
8 14 7 18 -2 3 -7 6 -4 6 7 1 14 -5 21 -18 21 -12 0 -17 -5 -13 -15z"/>
<path d="M1519 1943 c-23 -47 -23 -49 5 -18 27 31 32 45 18 45 -5 0 -15 -12
-23 -27z"/>
<path d="M2236 1957 c3 -10 9 -15 12 -12 3 3 0 11 -7 18 -10 9 -11 8 -5 -6z"/>
<path d="M1609 1913 c-13 -16 -12 -17 4 -4 9 7 17 15 17 17 0 8 -8 3 -21 -13z"/>
<path d="M2446 1757 c3 -10 9 -15 12 -12 3 3 0 11 -7 18 -10 9 -11 8 -5 -6z"/>
<path d="M1294 1676 c-8 -22 3 -33 18 -18 9 9 9 15 0 24 -9 9 -13 7 -18 -6z"/>
<path d="M1500 1680 c0 -5 5 -10 10 -10 6 0 10 5 10 10 0 6 -4 10 -10 10 -5 0
-10 -4 -10 -10z"/>
<path d="M1387 1673 c-4 -3 -7 -11 -7 -17 0 -6 5 -5 12 2 6 6 9 14 7 17 -3 3
-9 2 -12 -2z"/>
<path d="M1387 1625 c3 -8 9 -12 14 -9 12 7 11 11 -5 17 -10 4 -13 1 -9 -8z"/>
<path d="M1475 1600 c3 -5 8 -10 11 -10 2 0 4 5 4 10 0 6 -5 10 -11 10 -5 0
-7 -4 -4 -10z"/>
<path d="M2030 1585 c0 -2 10 -10 23 -16 20 -11 21 -11 8 4 -13 16 -31 23 -31
12z"/>
<path d="M1751 1489 c-9 -21 -10 -34 -3 -41 6 -6 8 -17 5 -26 -4 -9 -2 -13 4
-9 6 4 13 -2 16 -13 5 -18 7 -19 36 -4 17 9 31 20 31 25 0 14 -20 11 -38 -8
-16 -16 -17 -14 -23 23 -3 21 -7 33 -8 25 0 -8 -3 -12 -6 -10 -2 3 -2 15 2 28
4 17 8 19 14 9 5 -8 9 -9 9 -2 0 6 -6 16 -13 22 -10 8 -16 3 -26 -19z"/>
<path d="M1790 1459 c0 -3 9 -9 19 -12 13 -3 18 0 15 7 -5 13 -34 18 -34 5z"/>
<path d="M1880 1431 c0 -7 -5 -9 -12 -5 -7 5 -8 3 -3 -5 5 -9 10 -10 18 -2 6
6 8 14 4 18 -4 3 -7 1 -7 -6z"/>
<path d="M1665 1410 c-3 -5 -1 -10 4 -10 6 0 11 5 11 10 0 6 -2 10 -4 10 -3 0
-8 -4 -11 -10z"/>
<path d="M2225 1490 c3 -5 10 -10 16 -10 5 0 9 5 9 10 0 6 -7 10 -16 10 -8 0
-12 -4 -9 -10z"/>
<path d="M1407 1401 c-4 -17 -3 -21 5 -13 5 5 8 16 6 23 -3 8 -7 3 -11 -10z"/>
<path d="M1365 1399 c-3 -4 2 -6 10 -5 21 3 28 13 10 13 -9 0 -18 -4 -20 -8z"/>
<path d="M1713 1305 c0 -8 4 -12 9 -9 4 3 8 9 8 15 0 5 -4 9 -8 9 -5 0 -9 -7
-9 -15z"/>
<path d="M1774 3989 c-6 -10 -4 -11 29 -13 12 -1 27 2 34 7 7 5 17 6 22 2 6
-3 18 -2 28 3 11 7 -2 10 -45 10 -34 0 -65 -4 -68 -9z"/>
<path d="M2494 3669 c-3 -6 1 -18 10 -27 15 -15 16 -14 16 11 0 27 -13 36 -26
16z"/>
<path d="M974 3661 c4 -5 1 -12 -4 -14 -6 -3 -5 -4 2 -3 15 3 23 26 8 26 -6 0
-9 -4 -6 -9z"/>
<path d="M2800 3601 c0 -12 5 -21 10 -21 6 0 10 6 10 14 0 8 -4 18 -10 21 -5
3 -10 -3 -10 -14z"/>
<path d="M200 3015 c-17 -18 -27 -22 -36 -14 -20 17 -47 -30 -74 -131 -18 -67
-30 -94 -42 -98 -10 -2 -18 -9 -18 -14 0 -6 -7 -8 -15 -4 -13 5 -15 -54 -15
-489 0 -296 4 -495 9 -495 25 0 71 53 76 88 14 82 17 92 32 92 9 0 13 6 10 14
-3 8 1 22 9 33 9 10 13 12 9 6 -3 -7 -1 -13 4 -13 6 0 11 7 11 15 0 27 49 18
60 -10 6 -15 17 -25 30 -25 11 0 20 -4 20 -10 0 -5 8 -10 17 -10 19 0 93 77
93 96 0 6 6 17 14 23 7 6 16 30 19 54 4 23 15 59 26 80 17 34 21 36 30 20 9
-16 10 -15 11 10 0 15 4 27 9 27 14 0 70 122 67 145 -1 11 -6 28 -11 39 -5 12
-3 21 6 27 11 7 11 9 1 9 -9 0 -11 7 -7 20 4 13 1 22 -9 26 -9 3 -16 10 -16
15 0 16 -71 117 -86 123 -8 3 -14 12 -14 20 0 7 -18 21 -39 30 -57 22 -93 74
-91 128 4 90 0 137 -13 150 -7 7 -16 21 -20 31 -9 24 -29 21 -57 -8z"/>
<path d="M0 1744 c0 -8 5 -12 10 -9 6 3 10 10 10 16 0 5 -4 9 -10 9 -5 0 -10
-7 -10 -16z"/>
<path d="M1570 786 c0 -3 5 -17 10 -32 10 -26 11 -26 32 -8 21 19 21 19 9 -6
-11 -22 -10 -23 2 -8 16 20 28 14 20 -10 -5 -14 -3 -15 7 -5 12 11 9 18 -15
43 -24 25 -65 41 -65 26z"/>
<path d="M1473 766 c-41 -11 -80 -36 -56 -36 15 0 13 -40 -2 -40 -5 0 -2 -7 7
-14 10 -7 15 -16 11 -19 -3 -4 -3 -7 0 -7 4 0 13 12 21 28 l15 27 1 -25 0 -25
13 25 c8 14 19 24 25 23 21 -5 13 15 -9 22 -11 4 -18 9 -16 12 3 2 14 0 26 -6
16 -9 22 -8 30 7 9 18 -3 44 -18 41 -4 -1 -25 -7 -48 -13z m67 -12 c0 -8 -19
-13 -24 -6 -3 5 1 9 9 9 8 0 15 -2 15 -3z m-90 -54 c0 -11 -4 -20 -9 -20 -7 0
-8 17 -2 38 4 10 11 -2 11 -18z"/>
<path d="M1547 734 c-10 -14 -15 -30 -11 -36 11 -18 12 -48 2 -48 -5 0 -6 -5
-2 -11 5 -8 10 -6 16 5 5 9 6 21 2 28 -5 7 -2 9 8 6 8 -4 15 0 15 8 0 7 -4 11
-8 8 -14 -8 -20 15 -9 37 16 30 8 31 -13 3z"/>
<path d="M1386 683 c-6 -14 -5 -15 5 -6 7 7 10 15 7 18 -3 3 -9 -2 -12 -12z"/>
<path d="M1500 700 c-8 -26 -7 -41 2 -32 6 6 8 16 5 24 -3 7 -6 11 -7 8z"/>
<path d="M1620 692 c0 -7 -8 -12 -17 -12 -15 0 -16 -2 -3 -10 10 -6 17 -4 23
6 5 9 6 18 3 21 -3 4 -6 1 -6 -5z"/>
<path d="M1325 671 c-3 -12 -11 -21 -16 -21 -6 0 -7 -5 -3 -11 4 -8 12 -2 21
15 8 15 12 30 10 33 -3 2 -8 -5 -12 -16z"/>
<path d="M1515 660 c-4 -11 -11 -17 -17 -14 -7 5 -8 2 -3 -6 6 -10 11 -9 22 5
13 19 17 35 9 35 -3 0 -8 -9 -11 -20z"/>
<path d="M1208 651 c-10 -13 -10 -14 2 -4 9 8 19 9 31 3 11 -7 20 -7 24 0 7
11 8 11 -23 14 -12 2 -28 -4 -34 -13z"/>
<path d="M2836 654 c-8 -20 -8 -24 2 -24 4 0 8 9 9 20 2 24 -3 26 -11 4z"/>
<path d="M1272 640 c-18 -29 -15 -38 4 -12 9 13 14 25 12 27 -2 2 -9 -5 -16
-15z"/>
<path d="M1332 635 c-17 -37 -14 -45 4 -12 9 16 14 31 11 33 -2 2 -9 -7 -15
-21z"/>
<path d="M1566 643 c-6 -14 -5 -15 5 -6 7 7 10 15 7 18 -3 3 -9 -2 -12 -12z"/>
<path d="M2828 613 c7 -3 16 -2 19 1 4 3 -2 6 -13 5 -11 0 -14 -3 -6 -6z"/>
<path d="M1892 534 c-7 -8 -8 -14 -3 -14 10 0 25 19 20 25 -2 1 -10 -3 -17
-11z"/>
<path d="M2311 368 c-6 -13 -10 -18 -11 -13 0 6 -4 4 -9 -4 -11 -17 -2 -51 13
-51 20 0 36 23 36 51 0 36 -18 46 -29 17z"/>
</g>
</svg>
